<svg t="1634392411276" class="icon" viewBox="0 0 1024 1024" version="1.1" xmlns="http://www.w3.org/2000/svg" p-id="5717" width="200" height="200"><path d="M64 165.8c-0.1 33.8 17.9 65.2 47.2 82.1 29.3 17 65.4 17 94.7 0 29.3-17 47.3-48.3 47.2-82.1 0.1-33.8-17.9-65.2-47.2-82.1-29.3-17-65.4-17-94.7 0C81.9 100.6 63.9 132 64 165.8zM64 506.6c-0.1 33.8 17.9 65.2 47.2 82.1 29.3 17 65.4 17 94.7 0 29.3-17 47.3-48.3 47.2-82.1 0.1-33.8-17.9-65.2-47.2-82.1-29.3-17-65.4-17-94.7 0-29.3 17-47.3 48.3-47.2 82.1zM64 854.5c-0.1 33.8 17.9 65.2 47.2 82.1 29.3 17 65.4 17 94.7 0 29.3-17 47.3-48.3 47.2-82.1 0.1-33.8-17.9-65.2-47.2-82.1-29.3-17-65.4-17-94.7 0-29.3 16.9-47.3 48.2-47.2 82.1zM902.2 229.3H366c-32.1 0-58.2-26-58.2-58.2v-18.7c0-32.1 26-58.2 58.2-58.2h536.2c32.1 0 58.2 26 58.2 58.2v18.7c0 32.1-26.1 58.2-58.2 58.2zM902.2 573.9H366c-32.1 0-58.2-26-58.2-58.2V497c0-32.1 26-58.2 58.2-58.2h536.2c32.1 0 58.2 26 58.2 58.2v18.7c0 32.2-26.1 58.2-58.2 58.2zM902.2 922H366c-32.1 0-58.2-26-58.2-58.2v-18.7c0-32.1 26-58.2 58.2-58.2h536.2c32.1 0 58.2 26 58.2 58.2v18.7c0 32.2-26.1 58.2-58.2 58.2z" p-id="5718" fill="#010101"></path></svg>
